<svg width="183" height="52" viewBox="0 0 183 52" fill="none" xmlns="http://www.w3.org/2000/svg">
<g filter="url(#filter0_d_1_29)">
<rect x="135" width="44" height="43.4079" rx="21.704" fill="white"/>
<path fill-rule="evenodd" clip-rule="evenodd" d="M157 10C150.37 10 145 15.37 145 22C145 27.31 148.435 31.795 153.205 33.385C153.805 33.49 154.03 33.13 154.03 32.815C154.03 32.53 154.015 31.585 154.015 30.58C151 31.135 150.22 29.845 149.98 29.17C149.845 28.825 149.26 27.76 148.75 27.475C148.33 27.25 147.73 26.695 148.735 26.68C149.68 26.665 150.355 27.55 150.58 27.91C151.66 29.725 153.385 29.215 154.075 28.9C154.18 28.12 154.495 27.595 154.84 27.295C152.17 26.995 149.38 25.96 149.38 21.37C149.38 20.065 149.845 18.985 150.61 18.145C150.49 17.845 150.07 16.615 150.73 14.965C150.73 14.965 151.735 14.65 154.03 16.195C154.99 15.925 156.01 15.79 157.03 15.79C158.05 15.79 159.07 15.925 160.03 16.195C162.325 14.635 163.33 14.965 163.33 14.965C163.99 16.615 163.57 17.845 163.45 18.145C164.215 18.985 164.68 20.05 164.68 21.37C164.68 25.975 161.875 26.995 159.205 27.295C159.64 27.67 160.015 28.39 160.015 29.515C160.015 31.12 160 32.41 160 32.815C160 33.13 160.225 33.505 160.825 33.385C163.207 32.5807 165.277 31.0497 166.744 29.0074C168.21 26.965 168.999 24.5143 169 22C169 15.37 163.63 10 157 10Z" fill="#3A3A3A"/>
<rect x="70" y="1" width="41" height="42" rx="20.5" fill="white"/>
<path d="M91.897 30.9986V22.8026H94.662L95.073 19.5936H91.897V17.5496C91.897 16.6236 92.155 15.9896 93.484 15.9896H95.168V13.1286C94.3486 13.0408 93.525 12.9984 92.701 13.0016C90.257 13.0016 88.579 14.4936 88.579 17.2326V19.5876H85.832V22.7966H88.585V30.9986H91.897Z" fill="#3A3A3A"/>
<rect x="4" y="1" width="42" height="42" rx="21" fill="white"/>
<path fill-rule="evenodd" clip-rule="evenodd" d="M20.465 11.066C21.638 11.012 22.012 11 25 11C27.988 11 28.362 11.013 29.534 11.066C30.706 11.119 31.506 11.306 32.206 11.577C32.939 11.854 33.604 12.287 34.154 12.847C34.714 13.396 35.146 14.06 35.422 14.794C35.694 15.494 35.88 16.294 35.934 17.464C35.988 18.639 36 19.013 36 22C36 24.988 35.987 25.362 35.934 26.535C35.881 27.705 35.694 28.505 35.422 29.205C35.146 29.9391 34.7133 30.6042 34.154 31.154C33.604 31.714 32.939 32.146 32.206 32.422C31.506 32.694 30.706 32.88 29.536 32.934C28.362 32.988 27.988 33 25 33C22.012 33 21.638 32.987 20.465 32.934C19.295 32.881 18.495 32.694 17.795 32.422C17.0609 32.146 16.3958 31.7133 15.846 31.154C15.2864 30.6047 14.8533 29.9399 14.577 29.206C14.306 28.506 14.12 27.706 14.066 26.536C14.012 25.361 14 24.987 14 22C14 19.012 14.013 18.638 14.066 17.466C14.119 16.294 14.306 15.494 14.577 14.794C14.8537 14.0601 15.2871 13.3953 15.847 12.846C16.396 12.2865 17.0605 11.8534 17.794 11.577C18.494 11.306 19.294 11.12 20.464 11.066H20.465ZM29.445 13.046C28.285 12.993 27.937 12.982 25 12.982C22.063 12.982 21.715 12.993 20.555 13.046C19.482 13.095 18.9 13.274 18.512 13.425C17.999 13.625 17.632 13.862 17.247 14.247C16.882 14.6021 16.6012 15.0343 16.425 15.512C16.274 15.9 16.095 16.482 16.046 17.555C15.993 18.715 15.982 19.063 15.982 22C15.982 24.937 15.993 25.285 16.046 26.445C16.095 27.518 16.274 28.1 16.425 28.488C16.601 28.965 16.882 29.398 17.247 29.753C17.602 30.118 18.035 30.399 18.512 30.575C18.9 30.726 19.482 30.905 20.555 30.954C21.715 31.007 22.062 31.018 25 31.018C27.938 31.018 28.285 31.007 29.445 30.954C30.518 30.905 31.1 30.726 31.488 30.575C32.001 30.375 32.368 30.138 32.753 29.753C33.118 29.398 33.399 28.965 33.575 28.488C33.726 28.1 33.905 27.518 33.954 26.445C34.007 25.285 34.018 24.937 34.018 22C34.018 19.063 34.007 18.715 33.954 17.555C33.905 16.482 33.726 15.9 33.575 15.512C33.375 14.999 33.138 14.632 32.753 14.247C32.3979 13.8821 31.9657 13.6012 31.488 13.425C31.1 13.274 30.518 13.095 29.445 13.046ZM23.595 25.391C24.3797 25.7176 25.2534 25.7617 26.0669 25.5157C26.8805 25.2697 27.5834 24.7489 28.0556 24.0422C28.5278 23.3356 28.7401 22.4869 28.656 21.6411C28.572 20.7953 28.197 20.005 27.595 19.405C27.2112 19.0215 26.7472 18.7278 26.2363 18.5451C25.7255 18.3625 25.1804 18.2954 24.6405 18.3486C24.1006 18.4019 23.5792 18.5742 23.1138 18.8531C22.6485 19.1321 22.2507 19.5107 21.9493 19.9619C21.6479 20.413 21.4502 20.9253 21.3705 21.462C21.2908 21.9986 21.3312 22.5463 21.4885 23.0655C21.6459 23.5847 21.9165 24.0626 22.2807 24.4647C22.645 24.8668 23.0938 25.1832 23.595 25.391ZM21.002 18.002C21.527 17.477 22.1503 17.0605 22.8363 16.7764C23.5223 16.4922 24.2575 16.346 25 16.346C25.7425 16.346 26.4777 16.4922 27.1637 16.7764C27.8497 17.0605 28.473 17.477 28.998 18.002C29.523 18.527 29.9395 19.1503 30.2236 19.8363C30.5078 20.5223 30.654 21.2575 30.654 22C30.654 22.7425 30.5078 23.4777 30.2236 24.1637C29.9395 24.8497 29.523 25.473 28.998 25.998C27.9377 27.0583 26.4995 27.654 25 27.654C23.5005 27.654 22.0623 27.0583 21.002 25.998C19.9417 24.9377 19.346 23.4995 19.346 22C19.346 20.5005 19.9417 19.0623 21.002 18.002ZM31.908 17.188C32.0381 17.0653 32.1423 16.9177 32.2143 16.754C32.2863 16.5903 32.3248 16.4138 32.3274 16.2349C32.33 16.0561 32.2967 15.8785 32.2295 15.7128C32.1622 15.5471 32.0624 15.3965 31.936 15.27C31.8095 15.1436 31.6589 15.0438 31.4932 14.9765C31.3275 14.9093 31.1499 14.876 30.9711 14.8786C30.7922 14.8812 30.6157 14.9197 30.452 14.9917C30.2883 15.0637 30.1407 15.1679 30.018 15.298C29.7793 15.551 29.6486 15.8871 29.6537 16.2349C29.6588 16.5827 29.7992 16.9149 30.0452 17.1608C30.2911 17.4068 30.6233 17.5472 30.9711 17.5523C31.3189 17.5574 31.655 17.4267 31.908 17.188Z" fill="#3A3A3A"/>
</g>
<defs>
<filter id="filter0_d_1_29" x="0" y="0" width="183" height="51.4079" filterUnits="userSpaceOnUse" color-interpolation-filters="sRGB">
<feFlood flood-opacity="0" result="BackgroundImageFix"/>
<feColorMatrix in="SourceAlpha" type="matrix" values="0 0 0 0 0 0 0 0 0 0 0 0 0 0 0 0 0 0 127 0" result="hardAlpha"/>
<feOffset dy="4"/>
<feGaussianBlur stdDeviation="2"/>
<feComposite in2="hardAlpha" operator="out"/>
<feColorMatrix type="matrix" values="0 0 0 0 0 0 0 0 0 0 0 0 0 0 0 0 0 0 0.25 0"/>
<feBlend mode="normal" in2="BackgroundImageFix" result="effect1_dropShadow_1_29"/>
<feBlend mode="normal" in="SourceGraphic" in2="effect1_dropShadow_1_29" result="shape"/>
</filter>
</defs>
</svg>
